<?xml version="1.0" encoding="utf-8"?>
<!-- Generator: Adobe Illustrator 15.1.0, SVG Export Plug-In . SVG Version: 6.00 Build 0)  -->
<!DOCTYPE svg PUBLIC "-//W3C//DTD SVG 1.1//EN" "http://www.w3.org/Graphics/SVG/1.1/DTD/svg11.dtd">
<svg version="1.1" id="Layer_1" xmlns="http://www.w3.org/2000/svg" xmlns:xlink="http://www.w3.org/1999/xlink" x="0px" y="0px"
	 viewBox="5.741 1.793 104.429 105.154" enable-background="new 5.741 1.793 104.429 105.154"
	 xml:space="preserve">
<path fill="#FFFFFF" d="M110.17,54.37c0-14.482-5.937-27.52-15.207-37.078C85.404,7.587,72.367,1.793,57.884,1.793
	c-14.34,0-27.519,5.794-36.935,15.499C11.679,26.849,5.741,39.885,5.741,54.37c0,14.482,5.938,27.52,15.208,37.08
	c9.414,9.558,22.594,15.497,36.934,15.497c14.484,0,27.519-5.939,37.078-15.496C104.232,81.889,110.17,68.854,110.17,54.37z
	 M20.659,54.371c0-0.162,0.012-0.319,0.013-0.48h74.57c0.002,0.159,0.011,0.317,0.011,0.48c0,10.571-4.201,19.842-10.863,26.505
	c-6.809,6.951-16.366,11.153-26.506,11.153c-10.139,0-19.41-4.2-26.217-11.153C24.86,74.213,20.659,64.798,20.659,54.371z"/>
</svg>
