<svg xmlns="http://www.w3.org/2000/svg" preserveAspectRatio="xMidYMid meet" viewBox="0 0 51.113 52.98"><path fill="#fff" stroke="#fff" stroke-width="2" stroke-miterlimit="10" d="M45.358 10.937c-4.176-5.4-11.161-8.353-18.146-8.353-15.121 0-24.338 12.529-24.554 24.986-.144 11.881 6.336 23.042 22.61 23.042 1.944 0 4.393-.36 7.057-1.44l.504 1.368c-2.88 1.152-5.04 1.44-7.561 1.44-17.065 0-24.41-11.593-24.266-24.41.216-13.033 9.937-26.57 25.995-26.57 13.321 0 22.97 8.641 23.114 20.521.144 9.721-6.409 20.738-15.193 19.73-2.088-.216-3.816-1.729-3.312-5.401h-.216c-2.016 3.168-5.977 5.688-9.937 5.473-4.536-.216-8.712-4.68-8.712-10.657 0-9.865 5.544-18.074 15.265-18.074 2.016 0 7.417 1.008 7.993 6.985l1.656-4.608h1.44l-5.544 18.217c-.36.864-.648 2.088-.648 3.24 0 1.872.864 3.24 3.384 3.24 7.057 0 12.313-9.361 12.313-18.146 0-4.176-1.224-7.92-3.6-10.945l.358.362zm-23.618 28.658c3.528 0 6.769-1.44 9.649-5.761 1.44-3.528 2.736-7.776 3.601-11.737 0-4.896-2.592-7.921-7.273-7.921-9.217-.144-13.393 8.569-13.393 16.49-.001 4.537 2.951 8.929 7.416 8.929z"/></svg>
