<svg xmlns="http://www.w3.org/2000/svg" preserveAspectRatio="xMidYMid meet" viewBox="0 0 31.984 32"><path fill="#fff" d="M31.992 16c0 8.844-7.156 16-16 16-8.828 0-15.984-7.156-15.984-16 0-8.828 7.156-16 15.984-16 8.844 0 16 7.172 16 16zm-11.984 13c5.5-1.812 9.484-6.938 9.484-13 0-7.453-6.047-13.5-13.5-13.5-7.439 0-13.484 6.046-13.484 13.5 0 6.062 4 11.203 9.517 13v-2.547c-3.938.891-4.767-1.844-4.767-1.844-.625-1.609-1.53-2.031-1.53-2.031-1.267-.859.094-.844.094-.844 1.391.094 2.125 1.422 2.125 1.422 1.312 2.25 3.483 1.438 4.156 1.109.202-.984.969-1.188 1.219-1.268-3.547-.375-7.344-1.654-7.344-7.797 0-1.721.608-3.125 1.608-4.221-.156-.404-.703-2 .156-4.172 0 0 1.328-.42 4.328 1.609 1.25-.344 2.594-.516 3.938-.531 1.328.018 2.672.188 3.938.531 3-2.031 4.312-1.609 4.312-1.609.859 2.172.328 3.768.156 4.172 1.016 1.096 1.625 2.5 1.625 4.221 0 6.143-3.797 7.404-7.344 7.779.641.441 1.312 1.27 1.312 2.848v3.173z"/></svg>
