<svg xmlns="http://www.w3.org/2000/svg" preserveAspectRatio="xMidYMid meet" viewBox="0 0 200 200"><path fill="#fff" d="M.001 0v200h200v-200h-200zm148.912 72.752h-3.869c-1.437 0-3.095 1.879-3.095 3.206v48.081c0 1.328 1.658 3.316 3.095 3.316h3.869v11.164h-34.708v-11.164h6.964v-50.513h-.332l-17.133 61.677h-13.265l-16.911-61.677h-.332v50.513h7.295v11.164h-29.402v-11.164h3.758c1.548 0 3.206-1.988 3.206-3.316v-48.081c0-1.327-1.658-3.206-3.206-3.206h-3.758v-11.606h36.697l12.048 44.877h.332l12.16-44.877h36.587v11.606z"/></svg>
