<?xml version="1.0" encoding="utf-8"?>
<!-- Generator: Adobe Illustrator 15.1.0, SVG Export Plug-In . SVG Version: 6.00 Build 0)  -->
<!DOCTYPE svg PUBLIC "-//W3C//DTD SVG 1.1//EN" "http://www.w3.org/Graphics/SVG/1.1/DTD/svg11.dtd">
<svg version="1.1" id="Layer_1" xmlns="http://www.w3.org/2000/svg" xmlns:xlink="http://www.w3.org/1999/xlink" x="0px" y="0px"
	 width="202.399px" height="202.5px" viewBox="36.108 13.5 202.399 202.5" enable-background="new 36.108 13.5 202.399 202.5"
	 xml:space="preserve">
<path fill="#FFFFFF" d="M238.507,114.75c0,55.966-45.284,101.25-101.25,101.25c-55.865,0-101.149-45.284-101.149-101.25
	c0-55.865,45.284-101.25,101.149-101.25C193.223,13.5,238.507,58.885,238.507,114.75z M162.67,197.016
	c34.805-11.466,60.017-43.905,60.017-82.266c0-47.164-38.267-85.43-85.43-85.43c-47.075,0-85.329,38.26-85.329,85.43
	c0,38.36,25.312,70.894,60.225,82.266v-16.118c-24.92,5.639-30.166-11.668-30.166-11.668c-3.955-10.183-9.682-12.854-9.682-12.854
	c-8.018-5.436,0.595-5.34,0.595-5.34c8.802,0.594,13.447,8.998,13.447,8.998c8.302,14.238,22.041,9.1,26.299,7.019
	c1.278-6.228,6.132-7.519,7.714-8.025c-22.446-2.373-46.474-10.466-46.474-49.34c0-10.891,3.848-19.775,10.176-26.711
	c-0.987-2.557-4.449-12.656,0.987-26.401c0,0,8.403-2.658,27.388,10.182c7.91-2.177,16.416-3.266,24.92-3.361
	c8.404,0.114,16.91,1.19,24.92,3.361c18.984-12.853,27.286-10.182,27.286-10.182c5.437,13.745,2.076,23.844,0.988,26.401
	c6.43,6.936,10.283,15.82,10.283,26.711c0,38.874-24.028,46.854-46.475,49.227c4.057,2.791,8.303,8.036,8.303,18.022v20.079H162.67z
	"/>
</svg>
