<svg xmlns="http://www.w3.org/2000/svg" preserveAspectRatio="xMidYMid meet" viewBox="0 0 229.377 219.418"><g fill="#fff"><path d="M0 24.474v1.138c0 11.953 6.166 20.111 18.498 24.475l6.261.855h5.123c11.952 0 20.206-6.547 24.759-19.638l.568-5.692c0-12.142-6.546-20.396-19.637-24.759l-8.537-.853c-12.902 0-21.629 6.167-26.184 18.499l-.851 5.975zM3.129 71.431h48.666v147.985h-48.666zM128.634 91.924h-.568v-20.492h-48.666v147.986h48.666v-76.271c0-14.608 2.277-23.432 6.83-26.467 5.502-6.642 11.668-9.961 18.498-9.961h3.414c11.006 0 18.404 6.545 22.199 19.637.76 5.123 1.139 9.677 1.139 13.66v79.399h49.232v-81.105c0-35.858-11.855-58.151-35.572-66.879-7.969-2.276-15.367-3.416-22.197-3.416-17.647 0-31.971 7.97-42.975 23.909z"/></g></svg>
