<?xml version="1.0" encoding="utf-8"?>
<!-- Generator: Adobe Illustrator 15.1.0, SVG Export Plug-In . SVG Version: 6.00 Build 0)  -->
<!DOCTYPE svg PUBLIC "-//W3C//DTD SVG 1.1//EN" "http://www.w3.org/Graphics/SVG/1.1/DTD/svg11.dtd">
<svg version="1.1" id="Layer_1" xmlns="http://www.w3.org/2000/svg" xmlns:xlink="http://www.w3.org/1999/xlink" x="0px" y="0px"
	 width="225.804px" height="216px" viewBox="31.098 0 225.804 216" enable-background="new 31.098 0 225.804 216"
	 xml:space="preserve">
<g>
	<path fill="#FFFFFF" d="M50.177,34.521v0.931c0,9.779,5.044,16.453,15.133,20.022l5.122,0.7h4.191
		c9.777,0,16.53-5.356,20.254-16.065l0.465-4.657c0-9.933-5.355-16.685-16.065-20.254L72.293,14.5
		c-10.555,0-17.694,5.045-21.42,15.134L50.177,34.521z M52.736,72.936h39.812v121.062H52.736V72.936z M155.409,89.701h-0.465V72.937
		h-39.812V194h39.812v-62.396c0-11.95,1.862-19.169,5.587-21.651c4.501-5.435,9.546-8.149,15.133-8.149h2.793
		c9.004,0,15.056,5.354,18.16,16.064c0.622,4.191,0.932,7.917,0.932,11.175v64.955h40.275v-66.351
		c0-29.334-9.698-47.572-29.101-54.711c-6.519-1.862-12.57-2.795-18.159-2.795C176.129,70.141,164.41,76.661,155.409,89.701
		L155.409,89.701z"/>
</g>
</svg>
