<?xml version="1.0" encoding="utf-8"?>
<!-- Generator: Adobe Illustrator 15.1.0, SVG Export Plug-In . SVG Version: 6.00 Build 0)  -->
<!DOCTYPE svg PUBLIC "-//W3C//DTD SVG 1.1//EN" "http://www.w3.org/Graphics/SVG/1.1/DTD/svg11.dtd">
<svg version="1.1" id="Layer_1" xmlns="http://www.w3.org/2000/svg" xmlns:xlink="http://www.w3.org/1999/xlink" x="0px" y="0px"
	 width="216px" height="216px" viewBox="36.001 0 216 216" enable-background="new 36.001 0 216 216" xml:space="preserve">
<path fill="#FFFFFF" d="M49.751,13.75v188.5h188.5V13.75H49.751z M190.101,82.319h-3.646c-1.354,0-2.917,1.771-2.917,3.021v45.316
	c0,1.252,1.562,3.125,2.917,3.125h3.646v10.523h-32.712v-10.523h6.563V86.173h-0.313l-16.147,58.131h-12.502L119.05,86.173h-0.313
	v47.608h6.875v10.523H97.902v-10.523h3.542c1.459,0,3.021-1.873,3.021-3.125V85.34c0-1.25-1.562-3.021-3.021-3.021h-3.542V71.38
	h34.586l11.355,42.297h0.312l11.462-42.297h34.482V82.319L190.101,82.319z"/>
</svg>
