<svg xmlns="http://www.w3.org/2000/svg" preserveAspectRatio="xMidYMid meet" viewBox="0 0 435.403 189.084"><g fill="#fff"><path d="M21.027 98.117c-.925 0-1.687.74-1.811 1.76 0 .004-4.281 39.1-4.281 39.1l4.281 38.237c.124 1.023.886 1.765 1.811 1.765.918 0 1.66-.724 1.807-1.756l4.873-38.246-4.871-39.102c-.148-1.038-.891-1.758-1.809-1.758zM4.93 113.093c-.908 0-1.626.702-1.746 1.703l-3.184 24.181 3.184 23.769c.12 1 .838 1.7 1.746 1.7.883 0 1.598-.694 1.742-1.691l3.771-23.777-3.771-24.19c-.143-.998-.86-1.695-1.742-1.695zM38.133 90.451c-1.15 0-2.068.898-2.184 2.137 0 .003-4.062 46.393-4.062 46.393l4.062 44.698c.115 1.244 1.033 2.14 2.184 2.14 1.129 0 2.045-.896 2.179-2.131l4.618-44.707-4.615-46.395c-.137-1.239-1.053-2.135-2.182-2.135zM55.379 88.811c-1.35 0-2.449 1.08-2.557 2.511l-3.841 47.669 3.841 46.116c.107 1.426 1.207 2.505 2.557 2.505 1.332 0 2.43-1.079 2.551-2.505l4.363-46.116-4.363-47.678c-.121-1.425-1.219-2.502-2.551-2.502zM75.688 185.486l-.001.003v.006zM75.687 94.758c-.112-1.63-1.37-2.869-2.925-2.869-1.569 0-2.826 1.241-2.924 2.888l-3.625 44.218 3.625 46.496c.098 1.637 1.354 2.88 2.924 2.88 1.554 0 2.811-1.241 2.925-2.882l4.107-46.494-4.107-44.237zM90.289 63.808c-1.759 0-3.208 1.434-3.297 3.263 0 .002-3.404 71.943-3.404 71.943l3.404 46.491c.089 1.814 1.538 3.25 3.297 3.25 1.744 0 3.191-1.436 3.295-3.26v.014l3.852-46.495-3.852-71.946c-.104-1.829-1.551-3.26-3.295-3.26zM107.684 47.233c-1.975 0-3.586 1.596-3.672 3.635 0 .005-3.182 88.395-3.182 88.395l3.186 46.204c.082 2.021 1.693 3.617 3.668 3.617 1.961 0 3.572-1.596 3.666-3.635l-.002.026 3.602-46.213-3.6-88.395c-.094-2.038-1.705-3.634-3.666-3.634zM125.759 39.247c-2.189 0-3.964 1.764-4.042 4.013 0 .002-2.963 95.772-2.963 95.772l2.965 45.727c.076 2.228 1.851 3.987 4.04 3.987 2.177 0 3.95-1.755 4.04-4.005l-.002.027 3.346-45.736-3.344-95.774c-.09-2.25-1.863-4.011-4.04-4.011zM148.115 40.036c-.078-2.46-2.014-4.385-4.41-4.385-2.404 0-4.342 1.927-4.412 4.388l-2.744 98.998 2.746 45.443c.068 2.433 2.006 4.356 4.41 4.356 2.396 0 4.33-1.923 4.41-4.376l3.092-45.42-3.092-99.004zM148.115 184.457v.003l-.002.023zM161.792 37.814c-2.622 0-4.724 2.09-4.785 4.758l-2.524 96.474 2.527 45.009c.059 2.643 2.16 4.738 4.782 4.738 2.611 0 4.71-2.096 4.781-4.761v.031l2.838-45.018-2.838-96.479c-.071-2.665-2.17-4.752-4.781-4.752zM180.019 40.964c-2.835 0-5.101 2.257-5.155 5.135l-2.304 92.951 2.306 44.726c.053 2.849 2.318 5.099 5.153 5.099 2.827 0 5.091-2.25 5.153-5.131v.037l2.582-44.727-2.582-92.964c-.063-2.871-2.326-5.126-5.153-5.126zM201.438 23.883c-.878-.595-1.929-.942-3.053-.942-1.093 0-2.114.332-2.977.896-1.504.984-2.519 2.683-2.549 4.612l-.02 1.043-2.066 109.536c0 .066 2.086 44.464 2.086 44.464l.013.189c.062 1.241.533 2.383 1.286 3.285 1.018 1.218 2.54 2 4.227 2 1.498 0 2.867-.617 3.867-1.614 1-.995 1.631-2.369 1.66-3.885l.23-4.396 2.097-40.01-2.327-110.618c-.033-1.895-1.013-3.57-2.474-4.56zM203.91 183.496l.001-.013-.001.015.002-.023v-.011.003l-.001.016zM219.673 13.395c-.882-.534-1.907-.847-3-.847-1.406 0-2.703.505-3.721 1.346-1.309 1.08-2.156 2.713-2.18 4.536l-.012.607-2.406 120.036 1.227 22.19 1.192 21.594c.042 3.196 2.687 5.835 5.9 5.835 3.203 0 5.848-2.639 5.893-5.882v.052l2.625-43.789v-.001l-2.625-120.651c-.03-2.131-1.191-3.997-2.893-5.026zM381.853 81.966c-7.338 0-14.34 1.488-20.715 4.158-4.262-48.262-44.735-86.124-94.106-86.124-12.082 0-23.857 2.375-34.26 6.399-4.043 1.566-5.115 3.171-5.154 6.297v169.973c.043 3.277 2.586 5.825 5.785 6.145.137.015 148.449 0 148.449 0 29.576 0 53.551-23.709 53.551-53.29s-23.974-53.558-53.55-53.558z"/></g></svg>
