<?xml version="1.0" encoding="UTF-8"?>
<svg width="461px" height="98px" viewBox="0 0 461 98" version="1.1" xmlns="http://www.w3.org/2000/svg" xmlns:xlink="http://www.w3.org/1999/xlink">
    <!-- Generator: Sketch 52.2 (67145) - http://www.bohemiancoding.com/sketch -->
    <title>Untitled</title>
    <desc>Created with Sketch.</desc>
    <g id="Page-1" stroke="none" stroke-width="1" fill="none" fill-rule="evenodd">
        <path d="M50.112,21.88 C51.6960079,21.88 52.9799951,22.3959948 53.964,23.428 C54.9480049,24.4600052 55.44,25.7919918 55.44,27.424 L55.44,68.32 C55.44,69.9040079 54.9840046,71.1519954 54.072,72.064 C53.1599954,72.9760046 51.9600074,73.432 50.472,73.432 C49.0319928,73.432 47.8560046,72.9760046 46.944,72.064 C46.0319954,71.1519954 45.576,69.9040079 45.576,68.32 L45.576,42.904 L35.352,62.128 C34.6799966,63.3760062 33.948004,64.2879971 33.156,64.864 C32.363996,65.4400029 31.4160055,65.728 30.312,65.728 C29.2559947,65.728 28.3200041,65.4400029 27.504,64.864 C26.6879959,64.2879971 25.9440034,63.3760062 25.272,62.128 L15.048,43.264 L15.048,68.32 C15.048,69.8560077 14.5920046,71.0919953 13.68,72.028 C12.7679954,72.9640047 11.5680074,73.432 10.08,73.432 C8.6399928,73.432 7.46400456,72.9760046 6.552,72.064 C5.63999544,71.1519954 5.184,69.9040079 5.184,68.32 L5.184,27.424 C5.184,25.7919918 5.67599508,24.4600052 6.66,23.428 C7.64400492,22.3959948 8.92799208,21.88 10.512,21.88 C12.8160115,21.88 14.567994,23.1039878 15.768,25.552 L30.384,53.272 L44.928,25.552 C46.2240065,23.1039878 47.9519892,21.88 50.112,21.88 Z M70.272,73.432 C68.6879921,73.432 67.3800052,73.0000043 66.348,72.136 C65.3159948,71.2719957 64.8,70.0000084 64.8,68.32 L64.8,42.04 C64.8,40.3599916 65.3279947,39.0880043 66.384,38.224 C67.4400053,37.3599957 68.7359923,36.928 70.272,36.928 C71.8080077,36.928 73.0919948,37.3599957 74.124,38.224 C75.1560052,39.0880043 75.672,40.3599916 75.672,42.04 L75.672,68.32 C75.672,70.0000084 75.1560052,71.2719957 74.124,72.136 C73.0919948,73.0000043 71.8080077,73.432 70.272,73.432 Z M70.272,31.168 C68.3519904,31.168 66.8400055,30.6760049 65.736,29.692 C64.6319945,28.7079951 64.08,27.3760084 64.08,25.696 C64.08,24.0159916 64.6319945,22.6960048 65.736,21.736 C66.8400055,20.7759952 68.3519904,20.296 70.272,20.296 C72.1440094,20.296 73.6439944,20.7879951 74.772,21.772 C75.9000056,22.7560049 76.464,24.0639918 76.464,25.696 C76.464,27.3760084 75.9120055,28.7079951 74.808,29.692 C73.7039945,30.6760049 72.1920096,31.168 70.272,31.168 Z M103.68,65.512 C105.120007,65.6080005 106.175997,65.9679969 106.848,66.592 C107.520003,67.2160031 107.856,68.127994 107.856,69.328 C107.856,70.720007 107.304006,71.7759964 106.2,72.496 C105.095994,73.2160036 103.51201,73.5040007 101.448,73.36 L99.432,73.216 C91.031958,72.5439966 86.832,68.1520406 86.832,60.04 L86.832,45.784 L83.952,45.784 C82.3679921,45.784 81.1680041,45.4360035 80.352,44.74 C79.5359959,44.0439965 79.128,43.0480065 79.128,41.752 C79.128,40.4079933 79.5359959,39.3880035 80.352,38.692 C81.1680041,37.9959965 82.3679921,37.648 83.952,37.648 L86.832,37.648 L86.832,32.032 C86.832,30.4479921 87.3239951,29.2000046 88.308,28.288 C89.2920049,27.3759954 90.6239916,26.92 92.304,26.92 C93.9840084,26.92 95.3039952,27.3759954 96.264,28.288 C97.2240048,29.2000046 97.704,30.4479921 97.704,32.032 L97.704,37.648 L102.744,37.648 C106.008016,37.648 107.64,39.0159863 107.64,41.752 C107.64,43.0480065 107.232004,44.0439965 106.416,44.74 C105.599996,45.4360035 104.376008,45.784 102.744,45.784 L97.704,45.784 L97.704,60.832 C97.704,62.2720072 98.0399966,63.3639963 98.712,64.108 C99.3840034,64.8520037 100.367994,65.2719995 101.664,65.368 L103.68,65.512 Z M127.8,36.784 C132.984026,36.784 136.823988,38.0439874 139.32,40.564 C141.816012,43.0840126 143.064,46.9359741 143.064,52.12 L143.064,68.392 C143.064,69.9760079 142.608005,71.2119956 141.696,72.1 C140.783995,72.9880044 139.512008,73.432 137.88,73.432 C136.343992,73.432 135.108005,72.9640047 134.172,72.028 C133.235995,71.0919953 132.768,69.8800074 132.768,68.392 L132.768,67.888 C132.047996,69.6640089 130.848008,71.055995 129.168,72.064 C127.487992,73.072005 125.520011,73.576 123.264,73.576 C120.863988,73.576 118.69201,73.0960048 116.748,72.136 C114.80399,71.1759952 113.268006,69.8320086 112.14,68.104 C111.011994,66.3759914 110.448,64.4560106 110.448,62.344 C110.448,59.751987 111.107993,57.7120074 112.428,56.224 C113.748007,54.7359926 115.871985,53.6560034 118.8,52.984 C121.728015,52.3119966 125.735975,51.976 130.824,51.976 L132.696,51.976 L132.696,50.68 C132.696,48.6639899 132.252004,47.2000046 131.364,46.288 C130.475996,45.3759954 129.00001,44.92 126.936,44.92 C124.87199,44.92 121.896019,45.6399928 118.008,47.08 C116.903994,47.6080026 115.968004,47.872 115.2,47.872 C114.143995,47.872 113.304003,47.5000037 112.68,46.756 C112.055997,46.0119963 111.744,45.040006 111.744,43.84 C111.744,42.8799952 111.959998,42.0880031 112.392,41.464 C112.824002,40.8399969 113.519995,40.2640026 114.48,39.736 C116.160008,38.8239954 118.211988,38.1040026 120.636,37.576 C123.060012,37.0479974 125.447988,36.784 127.8,36.784 Z M125.64,66.088 C127.752011,66.088 129.455994,65.3800071 130.752,63.964 C132.048006,62.5479929 132.696,60.7120113 132.696,58.456 L132.696,57.232 L131.472,57.232 C127.583981,57.232 124.860008,57.5439969 123.3,58.168 C121.739992,58.7920031 120.96,59.9199918 120.96,61.552 C120.96,62.8960067 121.403996,63.9879958 122.292,64.828 C123.180004,65.6680042 124.295993,66.088 125.64,66.088 Z M184.536,64.576 C185.640006,65.6320053 186.192,66.8319933 186.192,68.176 C186.192,69.5200067 185.700005,70.7199947 184.716,71.776 C183.731995,72.8320053 182.592006,73.36 181.296,73.36 C180.047994,73.36 178.896005,72.856005 177.84,71.848 L162.072,57.232 L162.072,68.248 C162.072,69.9280084 161.556005,71.1999957 160.524,72.064 C159.491995,72.9280043 158.208008,73.36 156.672,73.36 C155.087992,73.36 153.780005,72.9280043 152.748,72.064 C151.715995,71.1999957 151.2,69.9280084 151.2,68.248 L151.2,26.992 C151.2,25.3119916 151.715995,24.0400043 152.748,23.176 C153.780005,22.3119957 155.087992,21.88 156.672,21.88 C158.208008,21.88 159.491995,22.3119957 160.524,23.176 C161.556005,24.0400043 162.072,25.3119916 162.072,26.992 L162.072,52.768 L176.472,38.584 C177.528005,37.5279947 178.703994,37 180,37 C181.344007,37 182.519995,37.4919951 183.528,38.476 C184.536005,39.4600049 185.04,40.6239933 185.04,41.968 C185.04,43.2160062 184.488006,44.3919945 183.384,45.496 L173.808,54.64 L184.536,64.576 Z M207.288,36.784 C212.472026,36.784 216.311988,38.0439874 218.808,40.564 C221.304012,43.0840126 222.552,46.9359741 222.552,52.12 L222.552,68.392 C222.552,69.9760079 222.096005,71.2119956 221.184,72.1 C220.271995,72.9880044 219.000008,73.432 217.368,73.432 C215.831992,73.432 214.596005,72.9640047 213.66,72.028 C212.723995,71.0919953 212.256,69.8800074 212.256,68.392 L212.256,67.888 C211.535996,69.6640089 210.336008,71.055995 208.656,72.064 C206.975992,73.072005 205.008011,73.576 202.752,73.576 C200.351988,73.576 198.18001,73.0960048 196.236,72.136 C194.29199,71.1759952 192.756006,69.8320086 191.628,68.104 C190.499994,66.3759914 189.936,64.4560106 189.936,62.344 C189.936,59.751987 190.595993,57.7120074 191.916,56.224 C193.236007,54.7359926 195.359985,53.6560034 198.288,52.984 C201.216015,52.3119966 205.223975,51.976 210.312,51.976 L212.184,51.976 L212.184,50.68 C212.184,48.6639899 211.740004,47.2000046 210.852,46.288 C209.963996,45.3759954 208.48801,44.92 206.424,44.92 C204.35999,44.92 201.384019,45.6399928 197.496,47.08 C196.391994,47.6080026 195.456004,47.872 194.688,47.872 C193.631995,47.872 192.792003,47.5000037 192.168,46.756 C191.543997,46.0119963 191.232,45.040006 191.232,43.84 C191.232,42.8799952 191.447998,42.0880031 191.88,41.464 C192.312002,40.8399969 193.007995,40.2640026 193.968,39.736 C195.648008,38.8239954 197.699988,38.1040026 200.124,37.576 C202.548012,37.0479974 204.935988,36.784 207.288,36.784 Z M205.128,66.088 C207.240011,66.088 208.943994,65.3800071 210.24,63.964 C211.536006,62.5479929 212.184,60.7120113 212.184,58.456 L212.184,57.232 L210.96,57.232 C207.071981,57.232 204.348008,57.5439969 202.788,58.168 C201.227992,58.7920031 200.448,59.9199918 200.448,61.552 C200.448,62.8960067 200.891996,63.9879958 201.78,64.828 C202.668004,65.6680042 203.783993,66.088 205.128,66.088 Z M291.528,21.88 C293.208008,21.88 294.551995,22.383995 295.56,23.392 C296.568005,24.400005 297.072,25.7439916 297.072,27.424 L297.072,67.816 C297.072,69.4960084 296.568005,70.8519948 295.56,71.884 C294.551995,72.9160052 293.208008,73.432 291.528,73.432 C289.847992,73.432 288.516005,72.928005 287.532,71.92 C286.547995,70.911995 286.056,69.5440086 286.056,67.816 L286.056,51.688 L262.656,51.688 L262.656,67.816 C262.656,69.4960084 262.152005,70.8519948 261.144,71.884 C260.135995,72.9160052 258.816008,73.432 257.184,73.432 C255.503992,73.432 254.160005,72.928005 253.152,71.92 C252.143995,70.911995 251.64,69.5440086 251.64,67.816 L251.64,27.424 C251.64,25.7439916 252.143995,24.400005 253.152,23.392 C254.160005,22.383995 255.503992,21.88 257.184,21.88 C258.864008,21.88 260.195995,22.383995 261.18,23.392 C262.164005,24.400005 262.656,25.7439916 262.656,27.424 L262.656,42.76 L286.056,42.76 L286.056,27.424 C286.056,25.7439916 286.547995,24.400005 287.532,23.392 C288.516005,22.383995 289.847992,21.88 291.528,21.88 Z M323.28,73.576 C319.535981,73.576 316.248014,72.8200076 313.416,71.308 C310.583986,69.7959924 308.400008,67.6600138 306.864,64.9 C305.327992,62.1399862 304.56,58.8880187 304.56,55.144 C304.56,51.3999813 305.327992,48.1480138 306.864,45.388 C308.400008,42.6279862 310.583986,40.5040074 313.416,39.016 C316.248014,37.5279926 319.535981,36.784 323.28,36.784 C327.024019,36.784 330.311986,37.5279926 333.144,39.016 C335.976014,40.5040074 338.159992,42.6279862 339.696,45.388 C341.232008,48.1480138 342,51.3999813 342,55.144 C342,58.8880187 341.232008,62.1399862 339.696,64.9 C338.159992,67.6600138 335.976014,69.7959924 333.144,71.308 C330.311986,72.8200076 327.024019,73.576 323.28,73.576 Z M323.28,65.296 C328.560026,65.296 331.2,61.9120338 331.2,55.144 C331.2,51.735983 330.516007,49.1920084 329.148,47.512 C327.779993,45.8319916 325.824013,44.992 323.28,44.992 C317.999974,44.992 315.36,48.3759662 315.36,55.144 C315.36,61.9120338 317.999974,65.296 323.28,65.296 Z M377.208,36.928 C378.888008,36.928 380.219995,37.3839954 381.204,38.296 C382.188005,39.2080046 382.68,40.4559921 382.68,42.04 L382.68,68.464 C382.68,69.9520074 382.164005,71.1519954 381.132,72.064 C380.099995,72.9760046 378.768008,73.432 377.136,73.432 C375.599992,73.432 374.376005,73.0000043 373.464,72.136 C372.551995,71.2719957 372.096,70.1200072 372.096,68.68 L372.096,67.96 C370.991994,69.7840091 369.540009,71.1759952 367.74,72.136 C365.939991,73.0960048 363.912011,73.576 361.656,73.576 C357.191978,73.576 353.868011,72.3400124 351.684,69.868 C349.499989,67.3959876 348.408,63.664025 348.408,58.672 L348.408,42.04 C348.408,40.4559921 348.899995,39.2080046 349.884,38.296 C350.868005,37.3839954 352.199992,36.928 353.88,36.928 C355.560008,36.928 356.879995,37.3839954 357.84,38.296 C358.800005,39.2080046 359.28,40.4559921 359.28,42.04 L359.28,58.888 C359.28,61.0000106 359.723996,62.559995 360.612,63.568 C361.500004,64.576005 362.855991,65.08 364.68,65.08 C366.792011,65.08 368.507993,64.3600072 369.828,62.92 C371.148007,61.4799928 371.808,59.5840118 371.808,57.232 L371.808,42.04 C371.808,40.4559921 372.287995,39.2080046 373.248,38.296 C374.208005,37.3839954 375.527992,36.928 377.208,36.928 Z M404.424,73.576 C401.495985,73.576 398.952011,73.3360024 396.792,72.856 C394.631989,72.3759976 392.736008,71.6080053 391.104,70.552 C390.383996,70.1199978 389.832002,69.5440036 389.448,68.824 C389.063998,68.1039964 388.872,67.2880046 388.872,66.376 C388.872,65.2719945 389.183997,64.3480037 389.808,63.604 C390.432003,62.8599963 391.199995,62.488 392.112,62.488 C392.736003,62.488 393.359997,62.5959989 393.984,62.812 C394.608003,63.0280011 395.255997,63.2799986 395.928,63.568 C397.272007,64.1920031 398.591994,64.6839982 399.888,65.044 C401.184006,65.4040018 402.79199,65.584 404.712,65.584 C406.392008,65.584 407.699995,65.3200026 408.636,64.792 C409.572005,64.2639974 410.04,63.5440046 410.04,62.632 C410.04,61.9599966 409.836002,61.420002 409.428,61.012 C409.019998,60.603998 408.264006,60.2320017 407.16,59.896 C406.055994,59.5599983 404.304012,59.1520024 401.904,58.672 C397.631979,57.8559959 394.560009,56.6320082 392.688,55 C390.815991,53.3679918 389.88,51.0880146 389.88,48.16 C389.88,45.9999892 390.539993,44.0560086 391.86,42.328 C393.180007,40.5999914 394.991988,39.2440049 397.296,38.26 C399.600012,37.2759951 402.191986,36.784 405.072,36.784 C407.13601,36.784 409.15199,37.0479974 411.12,37.576 C413.08801,38.1040026 414.839992,38.8479952 416.376,39.808 C417.864007,40.7200046 418.608,42.0639911 418.608,43.84 C418.608,44.9920058 418.296003,45.9519962 417.672,46.72 C417.047997,47.4880038 416.280005,47.872 415.368,47.872 C414.263994,47.872 412.944008,47.4400043 411.408,46.576 C410.207994,45.9519969 409.116005,45.4840016 408.132,45.172 C407.147995,44.8599984 405.984007,44.704 404.64,44.704 C403.151993,44.704 401.976004,44.9799972 401.112,45.532 C400.247996,46.0840028 399.816,46.8399952 399.816,47.8 C399.816,48.808005 400.319995,49.5759974 401.328,50.104 C402.336005,50.6320026 404.279986,51.1599974 407.16,51.688 C410.376016,52.3120031 412.895991,53.0679956 414.72,53.956 C416.544009,54.8440044 417.863996,55.9599933 418.68,57.304 C419.496004,58.6480067 419.904,60.3519897 419.904,62.416 C419.904,65.824017 418.500014,68.5359899 415.692,70.552 C412.883986,72.5680101 409.128024,73.576 404.424,73.576 Z M454.464,62.488 C455.424005,62.488 456.203997,62.8719962 456.804,63.64 C457.404003,64.4080038 457.704,65.391994 457.704,66.592 C457.704,67.4080041 457.464002,68.1639965 456.984,68.86 C456.503998,69.5560035 455.832004,70.1439976 454.968,70.624 C453.335992,71.4880043 451.440011,72.1959972 449.28,72.748 C447.119989,73.3000028 445.128009,73.576 443.304,73.576 C439.463981,73.576 436.116014,72.8320074 433.26,71.344 C430.403986,69.8559926 428.208008,67.7320138 426.672,64.972 C425.135992,62.2119862 424.368,58.9600187 424.368,55.216 C424.368,51.615982 425.111993,48.4240139 426.6,45.64 C428.088007,42.8559861 430.151987,40.6840078 432.792,39.124 C435.432013,37.5639922 438.431983,36.784 441.792,36.784 C445.008016,36.784 447.827988,37.4919929 450.252,38.908 C452.676012,40.3240071 454.559993,42.3399869 455.904,44.956 C457.248007,47.5720131 457.92,50.6319825 457.92,54.136 C457.92,55.1920053 457.668003,55.9959972 457.164,56.548 C456.659997,57.1000028 455.952005,57.376 455.04,57.376 L434.88,57.376 C435.216002,60.2080142 436.079993,62.2599936 437.472,63.532 C438.864007,64.8040064 440.855987,65.44 443.448,65.44 C444.840007,65.44 446.087994,65.2720017 447.192,64.936 C448.296006,64.5999983 449.519993,64.1440029 450.864,63.568 C451.536003,63.2799986 452.183997,63.0280011 452.808,62.812 C453.432003,62.5959989 453.983998,62.488 454.464,62.488 Z M442.08,44.272 C440.01599,44.272 438.360006,44.9319934 437.112,46.252 C435.863994,47.5720066 435.120001,49.4799875 434.88,51.976 L448.776,51.976 C448.631999,49.4319873 447.996006,47.5120065 446.868,46.216 C445.739994,44.9199935 444.14401,44.272 442.08,44.272 Z" id="Mitaka-House" fill="#84BBF5"></path>
    </g>
</svg>