<?xml version="1.0" encoding="utf-8"?>
<!-- Generator: Adobe Illustrator 15.1.0, SVG Export Plug-In . SVG Version: 6.00 Build 0)  -->
<!DOCTYPE svg PUBLIC "-//W3C//DTD SVG 1.1//EN" "http://www.w3.org/Graphics/SVG/1.1/DTD/svg11.dtd">
<svg version="1.1" id="Layer_1" xmlns="http://www.w3.org/2000/svg" xmlns:xlink="http://www.w3.org/1999/xlink" x="0px" y="0px"
	 width="288px" height="125.07px" viewBox="0 45.465 288 125.07" enable-background="new 0 45.465 288 125.07" xml:space="preserve"
	>
<g>
	<path fill="#FFFFFF" d="M13.908,110.365c-0.612,0-1.116,0.488-1.198,1.164c0,0.002-2.832,25.862-2.832,25.862l2.832,25.292
		c0.082,0.677,0.586,1.168,1.198,1.168c0.607,0,1.098-0.479,1.195-1.162l3.224-25.298l-3.222-25.864
		C15.007,110.841,14.516,110.365,13.908,110.365z M3.261,120.271c-0.601,0-1.075,0.464-1.155,1.126L0,137.392l2.106,15.722
		c0.08,0.662,0.554,1.125,1.155,1.125c0.584,0,1.057-0.459,1.152-1.118l2.495-15.728l-2.495-16.001
		C4.319,120.731,3.844,120.271,3.261,120.271z M25.223,105.294c-0.761,0-1.368,0.594-1.444,1.414c0,0.002-2.687,30.687-2.687,30.687
		l2.687,29.565c0.076,0.823,0.683,1.416,1.444,1.416c0.747,0,1.353-0.593,1.441-1.409l3.055-29.572l-3.053-30.688
		C26.576,105.887,25.97,105.294,25.223,105.294L25.223,105.294z M36.631,104.209c-0.893,0-1.62,0.714-1.691,1.661l-2.541,31.53
		l2.541,30.504c0.071,0.943,0.798,1.657,1.691,1.657c0.881,0,1.607-0.714,1.688-1.657l2.886-30.504l-2.886-31.536
		C38.238,104.921,37.512,104.209,36.631,104.209z M50.064,168.155l-0.001,0.002v0.005L50.064,168.155z M50.063,108.143
		c-0.074-1.079-0.906-1.898-1.935-1.898c-1.038,0-1.869,0.821-1.934,1.91l-2.398,29.249l2.398,30.754
		c0.065,1.084,0.896,1.906,1.934,1.906c1.028,0,1.859-0.822,1.935-1.907l2.717-30.753L50.063,108.143z M59.722,87.671
		c-1.164,0-2.122,0.948-2.181,2.158c0,0.001-2.251,47.587-2.251,47.587l2.251,30.752c0.059,1.199,1.017,2.15,2.181,2.15
		c1.154,0,2.111-0.951,2.18-2.156v0.009l2.548-30.755l-2.548-47.589C61.833,88.617,60.876,87.671,59.722,87.671z M71.228,76.707
		c-1.306,0-2.372,1.056-2.429,2.404c0,0.003-2.104,58.47-2.104,58.47l2.107,30.562c0.054,1.337,1.12,2.393,2.426,2.393
		c1.297,0,2.363-1.056,2.425-2.404l-0.001,0.018l2.382-30.568l-2.381-58.469C73.591,77.763,72.525,76.707,71.228,76.707z
		 M83.184,71.425c-1.448,0-2.622,1.167-2.674,2.654c0,0.001-1.959,63.349-1.959,63.349l1.961,30.247
		c0.05,1.474,1.225,2.638,2.672,2.638c1.44,0,2.613-1.162,2.672-2.65l-0.001,0.019l2.213-30.253l-2.212-63.35
		C85.797,72.59,84.624,71.425,83.184,71.425L83.184,71.425z M97.972,71.947c-0.052-1.627-1.332-2.9-2.917-2.9
		c-1.59,0-2.872,1.274-2.918,2.902l-1.815,65.483l1.816,30.059c0.045,1.609,1.327,2.881,2.917,2.881
		c1.585,0,2.864-1.271,2.917-2.895l2.045-30.043L97.972,71.947z M97.972,167.475v0.002l-0.001,0.016L97.972,167.475z
		 M107.019,70.477c-1.734,0-3.125,1.382-3.166,3.147l-1.669,63.813l1.672,29.771c0.039,1.748,1.429,3.134,3.163,3.134
		c1.727,0,3.115-1.386,3.162-3.149v0.021l1.877-29.778l-1.877-63.816C110.134,71.857,108.746,70.477,107.019,70.477z
		 M119.075,72.561c-1.875,0-3.374,1.493-3.41,3.396l-1.524,61.482l1.525,29.585c0.035,1.884,1.533,3.372,3.409,3.372
		c1.87,0,3.368-1.488,3.409-3.393v0.023l1.708-29.584l-1.708-61.492C122.441,74.052,120.945,72.561,119.075,72.561z M133.242,61.262
		c-0.581-0.394-1.276-0.623-2.019-0.623c-0.723,0-1.398,0.22-1.969,0.593c-0.995,0.651-1.667,1.774-1.686,3.05l-0.013,0.69
		l-1.367,72.454c0,0.043,1.38,29.41,1.38,29.41l0.008,0.125c0.041,0.821,0.353,1.576,0.851,2.174
		c0.673,0.805,1.68,1.322,2.796,1.322c0.991,0,1.896-0.408,2.558-1.067c0.662-0.658,1.079-1.567,1.098-2.569l0.152-2.908
		l1.387-26.465l-1.539-73.169C134.857,63.025,134.209,61.917,133.242,61.262L133.242,61.262z M134.877,166.84l0.001-0.01
		L134.877,166.84l0.001-0.015v-0.007v0.002l0,0.01L134.877,166.84z M145.305,54.325c-0.584-0.353-1.262-0.56-1.985-0.56
		c-0.93,0-1.788,0.334-2.461,0.89c-0.866,0.714-1.426,1.794-1.442,3l-0.008,0.401l-1.592,79.398l0.812,14.678l0.788,14.283
		c0.028,2.114,1.777,3.859,3.903,3.859c2.119,0,3.868-1.745,3.898-3.891v0.035l1.736-28.965l0,0l-1.736-79.806
		C147.197,56.24,146.43,55.005,145.305,54.325L145.305,54.325z M252.579,99.682c-4.854,0-9.485,0.984-13.702,2.75
		c-2.819-31.923-29.59-56.967-62.247-56.967c-7.991,0-15.78,1.571-22.661,4.232c-2.674,1.036-3.384,2.098-3.41,4.165v112.43
		c0.029,2.168,1.711,3.853,3.827,4.065c0.091,0.01,98.192,0,98.192,0c19.563,0,35.422-15.684,35.422-35.25
		S272.143,99.682,252.579,99.682z"/>
</g>
</svg>
