<svg xmlns="http://www.w3.org/2000/svg" preserveAspectRatio="xMidYMid meet" viewBox="0 0 171.506 139.379"><path fill="#fff" d="M171.505 16.499c-6.31 2.799-13.092 4.689-20.209 5.54 7.265-4.354 12.845-11.249 15.471-19.466-6.799 4.032-14.329 6.96-22.345 8.538-6.417-6.839-15.562-11.111-25.683-11.111-19.432 0-35.187 15.754-35.187 35.186 0 2.758.311 5.443.911 8.019-29.243-1.467-55.17-15.476-72.524-36.764-3.029 5.196-4.765 11.24-4.765 17.688 0 12.208 6.212 22.978 15.653 29.287-5.768-.183-11.193-1.766-15.938-4.4l-.004.442c0 17.048 12.129 31.269 28.226 34.503-2.952.804-6.061 1.233-9.27 1.233-2.268 0-4.472-.221-6.62-.631 4.478 13.979 17.472 24.151 32.87 24.435-12.043 9.438-27.214 15.063-43.7 15.063-2.84 0-5.641-.167-8.394-.492 15.572 9.984 34.067 15.81 53.938 15.81 64.721 0 100.113-53.615 100.113-100.114 0-1.525-.034-3.043-.102-4.553 6.877-4.96 12.841-11.156 17.559-18.213z"/></svg>
