<?xml version="1.0" encoding="UTF-8"?>
<svg width="828px" height="381px" viewBox="0 0 828 381" version="1.1" xmlns="http://www.w3.org/2000/svg" xmlns:xlink="http://www.w3.org/1999/xlink">
    <!-- Generator: Sketch 42 (36781) - http://www.bohemiancoding.com/sketch -->
    <title>root-artboard</title>
    <desc>Created with Sketch.</desc>
    <defs></defs>
    <g id="Page-1" stroke="none" stroke-width="1" fill="none" fill-rule="evenodd">
        <g id="service-email" fill-rule="nonzero" fill="#010101">
            <path d="M99.9989793,76.0167388 L99.9989793,31.004695 C99.9989793,31.004695 54.499061,62.7624724 50.0755287,64.4138973 C45.7254838,62.8390218 0,31.004695 0,31.004695 L0,76.0167388 C0,82.2682698 1.32787621,83.5175553 7.49979587,83.5175553 L92.4971422,83.5175553 C98.8252225,83.5175553 99.9989793,82.4193272 99.9989793,76.0167388 Z M99.92243,22.1790643 C99.92243,17.626929 98.5976157,16 92.4971422,16 L7.50081653,16 C1.22478974,16 0.00102065812,17.9514983 0.00102065812,22.5015922 L0.0785906753,23.2027844 C0.0785906753,23.2027844 45.2508778,54.3114232 50.0765494,56.0128603 C55.176778,54.0358455 100,22.5026129 100,22.5026129 L99.92243,22.1790643 Z" id="Shape"></path>
        </g>
        <g id="service-facebook" transform="translate(121.000000, 0.000000)" fill-rule="nonzero" fill="#000000">
            <path d="M38.4031856,99.9979587 L38.4031856,53.0768053 L26,53.0768053 L26,36.181679 L38.4031856,36.181679 L38.4031856,21.7514672 C38.4031856,10.4128604 45.7301601,0 62.6154779,0 C69.4524902,0 74.5082863,0.655269201 74.5082863,0.655269201 L74.1091714,16.4317428 C74.1091714,16.4317428 68.9523206,16.38173 63.3269436,16.38173 C57.2391649,16.38173 56.2633238,19.1885685 56.2633238,23.8468997 L56.2633238,36.1826997 L74.5940297,36.1826997 L73.7947791,53.077826 L56.2633238,53.077826 L56.2633238,100 L38.4031856,99.9979587 L38.4031856,99.9979587 L38.4031856,99.9979587 Z" id="Shape"></path>
        </g>
        <g id="service-linkedin" transform="translate(242.000000, 0.000000)" fill-rule="nonzero" fill="#000000">
            <path d="M0,12.7830455 L0,13.2841989 C0,18.5504333 2.68854324,22.1440944 8.064609,24.0662132 L10.7939805,24.4425938 L13.0272883,24.4425938 C18.2369787,24.4425938 21.8370137,21.5594155 23.8212688,15.7920278 L24.0693007,13.2841989 C24.0693007,7.93443886 21.2154029,4.29746825 15.5076072,2.37638057 L11.7861081,2 C6.16098974,2 2.35681334,4.71818954 0.370516778,10.1504439 L0,12.7830455 Z M1.36570647,33.4716028 L22.58213,33.4716028 L22.58213,98.668967 L1.36570647,98.668967 L1.36570647,33.4716028 Z M56.0837876,42.4995806 L55.834735,42.4995806 L55.834735,33.4716028 L34.6183115,33.4716028 L34.6183115,98.6699982 L55.834735,98.6699982 L55.834735,65.0669471 C55.834735,58.6313549 56.8278833,54.7448388 58.8131592,53.4073988 C61.2118215,50.4798798 63.9003647,49.0186983 66.8777682,49.0186983 L68.3659595,49.0186983 C73.1643049,49.0186983 76.3887195,51.9018766 78.0432862,57.6702955 C78.3760368,59.9265166 78.5413914,61.9331921 78.5413914,63.6892911 L78.5413914,98.6699982 L100.003805,98.6699982 L100.003805,62.9354988 C100.003805,47.1388578 94.8349433,37.3158405 84.4961982,33.4705716 C81.0217103,32.4672338 77.7972957,31.9650493 74.8178509,31.9650493 C67.1247793,31.9660805 60.8800916,35.4782784 56.0837876,42.4995806 L56.0837876,42.4995806 Z" id="Shape"></path>
        </g>
        <g id="service-twitter" transform="translate(364.000000, 0.000000)" fill-rule="nonzero" fill="#000000">
            <path d="M100.005891,18.6243523 C96.3272221,20.2575015 92.3719389,21.3598772 88.2206778,21.8559463 C92.4576792,19.3163993 95.7107083,15.292728 97.2417856,10.5014765 C93.2783367,12.8532114 88.8872068,14.560873 84.2123172,15.4825816 C80.4713849,11.4936147 75.1391528,9 69.2373599,9 C57.9073874,9 48.7199025,18.1895263 48.7199025,29.5215403 C48.7199025,31.1301922 48.902611,32.6969947 49.2516967,34.199492 C32.2005984,33.3431094 17.0827405,25.1722599 6.96538129,12.7562431 C5.1974973,15.7867556 4.18596552,19.3123164 4.18596552,23.0726424 C4.18596552,30.1921522 7.80645313,36.4726315 13.3122073,40.1523208 C9.94894072,40.0461661 6.78471416,39.1224161 4.01856772,37.5862351 L4.01550557,37.8434561 C4.01550557,47.7872933 11.0880623,56.080629 20.475608,57.967937 C18.7526356,58.4374674 16.93984,58.6865227 15.0698841,58.6865227 C13.7470333,58.6865227 12.461949,58.5579122 11.2095278,58.3200848 C13.8215457,66.4725614 21.3973165,72.4059966 30.3755542,72.5713529 C23.3540334,78.0760864 14.5064477,81.3556541 4.89332326,81.3556541 C3.23873899,81.3556541 1.60456908,81.2576652 0,81.069853 C9.08030949,86.8920299 19.863177,90.2900009 31.4513912,90.2900009 C69.1883654,90.2900009 89.8242261,59.0192768 89.8242261,31.8987931 C89.8242261,31.0097475 89.8038118,30.1247848 89.7629831,29.2428842 C93.7764472,26.3532309 97.2560757,22.7398883 100.005891,18.6243523 L100.005891,18.6243523 Z" id="Shape"></path>
        </g>
        <g id="service-medium" transform="translate(485.000000, 0.000000)" fill-rule="nonzero" fill="#000000">
            <path d="M0,0 L0,100 L99.9724419,100 L99.9724419,0 L0,0 Z M74.4363358,36.3776474 L72.5011483,36.3776474 C71.7846389,36.3776474 70.9548354,37.3166624 70.9548354,37.980097 L70.9548354,62.019903 C70.9548354,62.6843583 71.7836183,63.6784894 72.5011483,63.6784894 L74.4363358,63.6784894 L74.4363358,69.259505 L57.0859913,69.259505 L57.0859913,63.6784894 L60.566471,63.6784894 L60.566471,38.4210258 L60.4011227,38.4210258 L51.8356724,69.2584843 L45.2043889,69.2584843 L36.7501914,38.4210258 L36.5838224,38.4210258 L36.5838224,63.6774687 L40.2296504,63.6774687 L40.2296504,69.2584843 L25.5350855,69.2584843 L25.5350855,63.6774687 L27.4151569,63.6774687 C28.187803,63.6774687 29.0165859,62.6833376 29.0165859,62.0188824 L29.0165859,37.980097 C29.0165859,37.3166624 28.187803,36.3776474 27.4151569,36.3776474 L25.5350855,36.3776474 L25.5350855,30.5741261 L43.8805818,30.5741261 L49.9004848,53.0125032 L50.0678745,53.0125032 L56.1459556,30.5741261 L74.4332738,30.5741261 L74.4332738,36.3776474 L74.4363358,36.3776474 L74.4363358,36.3776474 Z" id="Shape"></path>
        </g>
        <g id="service-github" transform="translate(606.000000, 0.000000)" fill-rule="nonzero" fill="#000000">
            <path d="M99.9234491,50 C99.9234491,77.6379448 77.5675179,100 49.9367179,100 C22.3569518,100 0,77.6369241 0,50 C0,22.4120685 22.3559312,0 49.9367179,0 C77.5685386,5.80188814e-14 99.9234491,22.4120685 99.9234491,50 Z M62.4839243,90.6250638 C79.6650132,84.9623369 92.1142344,68.9438014 92.1142344,50 C92.1142344,26.7081062 73.2214669,7.81227673 49.9377386,7.81227673 C26.6968788,7.81227673 7.81023537,26.7070856 7.81023537,50 C7.81023537,68.9427807 20.3074285,85.0082675 37.5446547,90.6250638 L37.5446547,82.66683 C25.2403699,85.4522628 22.6509074,76.9040766 22.6509074,76.9040766 C20.6983485,71.8751914 17.8710678,70.5554535 17.8710678,70.5554535 C13.9108335,67.8720885 18.1640027,67.9180191 18.1640027,67.9180191 C22.5100537,68.2119746 24.8035193,72.3620552 24.8035193,72.3620552 C28.9015453,79.3935126 35.6859983,76.8561047 37.7865556,75.828281 C38.4193766,72.7529753 40.8159308,72.1140303 41.5947088,71.8660053 C30.5152387,70.6942658 18.6518872,66.6983077 18.6518872,47.5003572 C18.6518872,42.1213791 20.5513708,37.7355217 23.6766897,34.3091024 C23.1888052,33.0465225 21.4791679,28.0584645 24.1645743,21.2719701 C24.1645743,21.2719701 28.3136342,19.9603977 37.6865291,26.3008553 C41.5916468,25.2250597 45.7896993,24.6871619 49.9887725,24.6412313 C54.1357911,24.696348 58.3399677,25.2281217 62.2930573,26.3008553 C71.6659522,19.9532529 75.7639782,21.2719701 75.7639782,21.2719701 C78.4483639,28.0594852 76.7877192,33.0475432 76.2518627,34.3091024 C79.4261743,37.7334803 81.3307612,42.1213791 81.3307612,47.5003572 C81.3307612,66.6983077 69.4674097,70.6381285 58.3858983,71.8108886 C60.3894911,73.1888052 62.4859657,75.7792884 62.4859657,80.7112091 L62.4859657,90.6250638 L62.4839243,90.6250638 L62.4839243,90.6250638 Z" id="Shape"></path>
        </g>
        <g id="service-soundcloud" transform="translate(727.000000, 0.000000)" fill-rule="nonzero" fill="#000000">
            <path d="M4.82893474,50.5421737 C4.6176497,50.5421737 4.44208919,50.7105893 4.41350958,50.9463711 C4.41350958,50.9484125 3.42955416,59.9295575 3.42955416,59.9295575 L4.41350958,68.7137072 C4.44004779,68.9474477 4.6176497,69.1179047 4.82893474,69.1179047 C5.04021977,69.1179047 5.21067678,68.9515305 5.2443599,68.7147279 L6.3640685,59.9285368 L5.2453806,50.9453504 C5.21067678,50.7075272 5.04021977,50.5421737 4.82893474,50.5421737 Z M1.13297771,53.9839762 C0.924754782,53.9839762 0.760421978,54.1421848 0.73184236,54.3738839 L0,59.9285368 L0.73184236,65.3903059 C0.759401278,65.6209843 0.923734081,65.7802136 1.13297771,65.7802136 C1.33609714,65.7802136 1.49940924,65.622005 1.53207166,65.3913266 L2.39966721,59.9285368 L1.53207166,54.3698011 C1.50042994,54.1421848 1.33405574,53.9839762 1.13297771,53.9839762 Z M8.75863221,48.7804444 C8.49325004,48.7804444 8.28400641,48.9876466 8.25644749,49.2724221 L7.32352711,59.9295575 L8.25644749,70.1998473 C8.28400641,70.4856435 8.49325004,70.6897837 8.75863221,70.6897837 C9.01789017,70.6897837 9.2271338,70.4856435 9.25877552,70.200868 L10.3192835,59.9295575 L9.25979623,49.2724221 C9.2271338,48.9866259 9.01789017,48.7804444 8.75863221,48.7804444 L8.75863221,48.7804444 Z M12.7199714,48.4027851 C12.4086577,48.4027851 12.1575653,48.6508154 12.1330685,48.9805017 L11.2511832,59.9315989 L12.1330685,70.5264716 C12.1575653,70.8530958 12.4096784,71.1001053 12.7199714,71.1001053 C13.0272023,71.1001053 13.2782947,70.8510544 13.3058536,70.5264716 L14.3081816,59.9315989 L13.3058536,48.9774396 C13.2782947,48.6508154 13.0272023,48.4027851 12.7199714,48.4027851 Z M17.3845733,70.6142518 L17.3845733,70.6142518 L17.3845733,70.6162932 L17.3845733,70.6142518 Z M17.3845733,49.770524 C17.3580351,49.3959269 17.0691768,49.1111514 16.7109109,49.1111514 C16.352645,49.1111514 16.0637867,49.3979683 16.0403106,49.7746068 L15.2084396,59.9336403 L16.0403106,70.6142518 C16.0637867,70.9908903 16.352645,71.2766865 16.7109109,71.2766865 C17.0691768,71.2766865 17.3590558,70.9908903 17.3845733,70.6132311 L18.3277007,59.9336403 L17.3845733,49.770524 Z M20.7375749,42.6593026 C20.3333775,42.6593026 20.0016498,42.9889889 19.9802151,43.4084969 C19.9802151,43.4105383 19.1983584,59.9377231 19.1983584,59.9377231 L19.9802151,70.6193553 C20.0016498,71.0358012 20.3333775,71.3654875 20.7375749,71.3654875 C21.1387103,71.3654875 21.470438,71.0337598 21.4949348,70.6152725 L21.4949348,70.6183346 L22.3798823,59.9367024 L21.4949348,43.4074762 C21.470438,42.9889889 21.1387103,42.6593026 20.7375749,42.6593026 Z M24.7325973,38.8510685 C24.2794062,38.8510685 23.9088918,39.2164794 23.8894985,39.6860017 C23.8894985,39.6870224 23.1586769,59.9938616 23.1586769,59.9938616 L23.8905192,70.6091483 C23.9099125,71.0745878 24.2794062,71.4399986 24.7325973,71.4399986 C25.1827262,71.4399986 25.5522199,71.0756085 25.575696,70.6050655 L25.5736546,70.6122104 L26.4014428,59.995903 L25.575696,39.6880431 C25.5522199,39.2175001 25.1847676,38.8510685 24.7325973,38.8510685 Z M28.8848075,37.0168695 C28.3816021,37.0168695 27.9743425,37.4231083 27.9559699,37.9385622 C27.9559699,37.9406036 27.2761833,59.9428266 27.2761833,59.9428266 L27.9569906,70.4478776 C27.9763839,70.9602693 28.3816021,71.3634461 28.8848075,71.3634461 C29.3859715,71.3634461 29.793231,70.9602693 29.8126244,70.4427741 L29.8126244,70.4488983 L30.5801912,59.9418059 L29.8126244,37.9375415 C29.7922103,37.4231083 29.3859715,37.0168695 28.8848075,37.0168695 L28.8848075,37.0168695 Z M34.0189317,37.1975335 C34.0005591,36.633086 33.5565543,36.190102 33.0063967,36.190102 C32.4541976,36.190102 32.0091721,36.633086 31.9938616,37.1985542 L31.3630686,59.9428266 L31.9928409,70.3835735 C32.0071307,70.9418967 32.4531769,71.3838601 33.005376,71.3838601 C33.5555336,71.3838601 34.0005591,70.940876 34.017911,70.37847 L34.7283186,59.9438473 L34.0189317,37.1975335 Z M34.0189317,70.3774493 L34.0189317,70.3774493 L34.0189317,70.3825528 L34.0189317,70.3774493 Z M37.1606483,36.6871832 C36.5584349,36.6871832 36.0766642,37.1679332 36.060333,37.7793329 L35.480575,59.9428266 L36.0623744,70.2835448 C36.0766642,70.8908617 36.5563935,71.3726324 37.1606483,71.3726324 C37.7608203,71.3726324 38.242591,70.8908617 38.2589222,70.279462 L38.2589222,70.2855862 L38.9111499,59.9428266 L38.2589222,37.7783122 C38.242591,37.1679332 37.7608203,36.6871832 37.1606483,36.6871832 Z M41.3475623,37.4108599 C40.6953346,37.4108599 40.1768187,37.9283551 40.1635496,38.5907899 L39.6348266,59.944868 L40.1635496,70.2202614 C40.1778394,70.8745305 40.6953346,71.391005 41.3475623,71.391005 C41.9967279,71.391005 42.5172852,70.8745305 42.5315751,70.2120958 L42.5315751,70.2212821 L43.1246021,59.9469094 L42.5315751,38.5897692 C42.5152438,37.9283551 41.9957072,37.4108599 41.3475623,37.4108599 Z M46.2673394,33.4883074 C46.0652407,33.3505128 45.8243553,33.2719188 45.5650974,33.2719188 C45.314005,33.2719188 45.0792439,33.3474507 44.8812279,33.4781003 C44.5362311,33.7026545 44.3045321,34.0935828 44.2963665,34.5365669 L44.2922837,34.7764316 L43.8176579,59.9418059 C43.8176579,59.955075 44.2963665,70.1559572 44.2963665,70.1559572 L44.2994286,70.1998473 C44.3126977,70.4846228 44.4219126,70.7469429 44.5944111,70.9541451 C44.8281515,71.2338171 45.1772311,71.4144811 45.5650974,71.4144811 C45.9090735,71.4144811 46.22447,71.271583 46.4541276,71.0429461 C46.6827646,70.8143091 46.8287248,70.4978919 46.8358697,70.1508537 L46.8879254,69.1403601 L47.3696961,59.9479301 L46.834849,34.5365669 C46.8277041,34.0986863 46.6011085,33.7138822 46.2673394,33.4883074 L46.2673394,33.4883074 Z M46.8338283,70.1569779 L46.8338283,70.1528951 L46.8338283,70.1569779 L46.8338283,70.1508537 L46.8338283,70.1488123 L46.8338283,70.1488123 L46.8338283,70.1528951 L46.8338283,70.1569779 Z M50.4542534,31.0774124 C50.251134,30.9549284 50.0153522,30.8834793 49.7652805,30.8834793 C49.4437598,30.8834793 49.1446945,30.9998392 48.9109541,31.1927516 C48.6098474,31.4418026 48.4148936,31.8163997 48.4108108,32.234887 L48.4077487,32.3737023 L47.8545289,59.9509922 L48.137263,65.0483712 L48.4108108,70.009997 C48.4210178,70.7438808 49.0273139,71.3491563 49.7652805,71.3491563 C50.5022264,71.3491563 51.1085226,70.7438808 51.1187296,69.9977486 L51.1187296,70.0120384 L51.7219636,59.9520129 L51.7219636,59.9520129 L51.1187296,32.234887 C51.1115847,31.74393 50.8441611,31.314215 50.4542534,31.0774124 L50.4542534,31.0774124 Z M87.7037027,46.8309061 C86.0175052,46.8309061 84.4099017,47.1728409 82.946217,47.7873026 C81.9673651,36.6984109 72.6708236,28 61.3308395,28 C58.5565751,28 55.8517184,28.5450541 53.4622582,29.4698089 C52.5334206,29.8301163 52.2894732,30.1985892 52.2792662,30.9161417 L52.2792662,69.9661069 C52.2894732,70.7183633 52.8722933,71.3042454 53.6082184,71.3777359 C53.6378187,71.3818187 87.7016613,71.3777359 87.7016613,71.3777359 C94.4934033,71.3777359 100.002125,65.9302566 100.002125,59.133411 C100.002125,52.3386068 94.4954447,46.8309061 87.7037027,46.8309061 Z" id="Shape"></path>
        </g>
        <g id="logo-iab" transform="translate(0.000000, 150.000000)" fill-rule="nonzero" fill="#000000">
            <g id="iab">
                <polygon id="Shape" points="84.4211278 50.5410436 84.4211278 32.3409289 13.5798486 32.3409289 13.5798486 50.5410436 0 50.5410436 0 0 13.5798486 0 13.5798486 18.2010481 84.4211278 18.2010481 84.4211278 0 97.8609684 0 97.8609684 50.5410436"></polygon>
                <path d="M24.7804936,124.461567 L24.7804936,84.7020773 L0,75.1815291 L0,59.9206503 L99.2619824,99.2619824 L99.2619824,109.622579 L0,148.962978 L0,133.842107 L24.7804936,124.461567 Z M38.0803261,89.8805088 L38.0803261,119.282202 L76.7206844,104.581355 L38.0803261,89.8805088 Z" id="Shape"></path>
                <path d="M97.8619017,199.227739 C97.8619017,211.547515 90.8614986,219.388899 81.7609746,223.027242 C72.1013517,226.948401 60.9007068,225.687396 53.9003037,215.888698 C49.1400296,227.087476 38.7803664,231.149577 29.5398343,231.149577 C14.8399212,231.148643 0,221.488087 0,202.72794 L0,158.487259 L97.8619017,158.487259 L97.8619017,199.227739 Z M13.7198567,172.487132 L13.7198567,202.727007 C13.7198567,212.246622 21.7003162,217.006896 29.3998262,217.006896 C37.1002696,217.006896 44.9397877,212.246622 44.9397877,202.727007 L44.9397877,172.487132 L13.7198567,172.487132 Z M58.9405939,172.487132 L58.9405939,198.946789 C58.9405939,214.347676 84.4211278,214.626759 84.4211278,199.227739 L84.4211278,172.488066 L58.9405939,172.488066 L58.9405939,172.487132 Z" id="Shape"></path>
            </g>
        </g>
        <g id="logo-mar" transform="translate(121.000000, 216.000000)" fill-rule="nonzero" fill="#000000">
            <g id="mar">
                <polygon id="Shape" points="14.8588785 99.9495327 0.700934579 99.9495327 0.700934579 1.82242991 12.1953271 1.82242991 44.5775701 49.4841121 76.9588785 1.82242991 88.1738318 1.82242991 88.1738318 99.9485981 74.1551402 99.9485981 74.1551402 30.8401869 48.5018692 68.9691589 40.511215 68.9691589 14.8579439 30.8401869"></polygon>
                <path d="M163.453271,75.1373832 L123.641121,75.1373832 L114.11028,99.9495327 L98.828972,99.9495327 L138.220561,0.560747664 L148.594393,0.560747664 L187.983178,99.9495327 L172.845794,99.9495327 L163.453271,75.1373832 Z M128.829907,61.8196262 L158.26729,61.8196262 L143.547664,23.1308411 L128.829907,61.8196262 Z" id="Shape"></path>
                <path d="M217.285981,50.1850467 L233.827103,50.1850467 C245.742991,50.1850467 251.631776,41.6345794 251.631776,33.082243 C251.631776,24.671028 245.742991,16.1214953 233.827103,16.1214953 L212.1,16.1214953 L212.1,99.9485981 L198.081308,99.9485981 L198.081308,1.82242991 L233.827103,1.82242991 C255.134579,1.82242991 265.785047,17.5224299 265.785047,33.082243 C265.785047,46.9607477 257.237383,60.1373832 240.414953,63.082243 L271.392523,99.9485981 L253.031776,99.9485981 L217.285981,56.9130841 L217.285981,50.1850467 L217.285981,50.1850467 Z" id="Shape"></path>
            </g>
        </g>
        <g id="logo-o" transform="translate(435.000000, 216.000000)" fill-rule="nonzero" fill="#000000">
            <g id="logo">
                <path d="M99.2169811,50.3490566 C99.2169811,36.6867925 93.6160377,24.3867925 84.8707547,15.3698113 C75.8528302,6.21415094 63.5537736,0.748113208 49.890566,0.748113208 C36.3622642,0.748113208 23.9292453,6.21415094 15.0462264,15.3698113 C6.3009434,24.3858491 0.699056604,36.6839623 0.699056604,50.3490566 C0.699056604,64.0113208 6.3009434,76.3113208 15.0462264,85.3301887 C23.9273585,94.3471698 36.3613208,99.95 49.8896226,99.95 C63.5537736,99.95 75.8509434,94.3471698 84.8688679,85.3311321 C93.6150943,76.3103774 99.2169811,64.0132075 99.2169811,50.3490566 Z M14.7726415,50.35 C14.7726415,50.1971698 14.7839623,50.0490566 14.7849057,49.8971698 L85.1339623,49.8971698 C85.1358491,50.0471698 85.1443396,50.1962264 85.1443396,50.35 C85.1443396,60.3226415 81.1811321,69.0688679 74.8962264,75.354717 C68.4726415,81.9122642 59.4566038,85.8764151 49.890566,85.8764151 C40.3254717,85.8764151 31.5792453,81.9141509 25.1575472,75.354717 C18.7358491,69.0688679 14.7726415,60.1867925 14.7726415,50.35 Z" id="Shape"></path>
            </g>
        </g>
        <g id="root-artboard"></g>
    </g>
</svg>