<?xml version="1.0" encoding="utf-8"?>
<!DOCTYPE svg PUBLIC "-//W3C//DTD SVG 1.1//EN" "http://www.w3.org/Graphics/SVG/1.1/DTD/svg11.dtd">
<svg version="1.1" id="Layer_1" xmlns="http://www.w3.org/2000/svg" xmlns:xlink="http://www.w3.org/1999/xlink" x="0px" y="0px"
width="106.346px" height="247.645px" viewBox="0 0 106.346 247.645" enable-background="new 0 0 106.346 247.645"
xml:space="preserve">
<g>
<path fill="#FF6D00" d="M90.446,54.148V34.649H14.549v19.499H0V0h14.549v19.5h75.897V0h14.399v54.148H90.446z"/>
<path fill="#FF6D00" d="M26.549,133.344V90.747L0,80.547v-16.35l106.346,42.149v11.1L0,159.594v-16.2L26.549,133.344z
M40.798,96.295v31.5l41.398-15.75L40.798,96.295z"/>
<path fill="#FF6D00" d="M104.846,213.446c0,13.199-7.5,21.6-17.25,25.498c-10.349,4.201-22.349,2.85-29.849-7.648
c-5.1,11.998-16.199,16.35-26.099,16.35C15.899,247.645,0,237.295,0,217.196v-47.398h104.846V213.446z M14.699,184.797v32.398
c0,10.199,8.55,15.299,16.799,15.299c8.25,0,16.649-5.1,16.649-15.299v-32.398H14.699z M63.147,184.797v28.348
c0,16.5,27.299,16.799,27.299,0.301v-28.648H63.147z"/>
</g>
</svg>
