<?xml version="1.0" encoding="utf-8"?>
<!-- Generator: Adobe Illustrator 15.1.0, SVG Export Plug-In . SVG Version: 6.00 Build 0)  -->
<!DOCTYPE svg PUBLIC "-//W3C//DTD SVG 1.1//EN" "http://www.w3.org/Graphics/SVG/1.1/DTD/svg11.dtd">
<svg version="1.1" id="Layer_1" xmlns="http://www.w3.org/2000/svg" xmlns:xlink="http://www.w3.org/1999/xlink" x="0px" y="0px"
	 width="413.395px" height="108.896px" viewBox="0 0 413.395 108.896" enable-background="new 0 0 413.395 108.896"
	 xml:space="preserve">
<path fill="#FFFFFF" d="M138.899,106.946H123.75V1.95h12.299l34.649,50.998L205.346,1.95h12v104.996h-15V32.999l-27.449,40.798
	h-8.55l-27.449-40.798L138.899,106.946L138.899,106.946z"/>
<path fill="#FFFFFF" d="M297.895,80.397h-42.598l-10.199,26.549h-16.35L270.896,0.6h11.1l42.146,106.346h-16.197L297.895,80.397z
	 M260.848,66.147h31.498l-15.75-41.398L260.848,66.147z"/>
<path fill="#FFFFFF" d="M355.496,53.698h17.699c12.75,0,19.051-9.149,19.051-18.299c0-9-6.301-18.149-19.051-18.149h-23.248v89.696
	h-15V1.95h38.248c22.799,0,34.197,16.799,34.197,33.449c0,14.849-9.148,28.949-27.146,32.099l33.146,39.448h-19.648l-38.248-46.048
	V53.698L355.496,53.698z"/>
<path fill="#FFFFFF" d="M110.17,54.37c0-14.483-5.937-27.52-15.207-37.078C85.404,7.587,72.367,1.793,57.884,1.793
	c-14.34,0-27.519,5.794-36.935,15.499C11.679,26.849,5.741,39.885,5.741,54.37c0,14.482,5.938,27.519,15.208,37.08
	c9.414,9.558,22.594,15.497,36.934,15.497c14.484,0,27.519-5.939,37.078-15.496C104.232,81.889,110.17,68.854,110.17,54.37z
	 M20.659,54.371c0-0.162,0.012-0.319,0.013-0.481h74.57c0.002,0.16,0.011,0.318,0.011,0.481c0,10.571-4.201,19.842-10.863,26.505
	c-6.809,6.951-16.366,11.153-26.506,11.153c-10.139,0-19.41-4.2-26.217-11.153C24.86,74.213,20.659,64.798,20.659,54.371z"/>
</svg>
