<?xml version="1.0" encoding="utf-8"?>
<!-- Generator: Adobe Illustrator 15.1.0, SVG Export Plug-In . SVG Version: 6.00 Build 0)  -->
<!DOCTYPE svg PUBLIC "-//W3C//DTD SVG 1.1//EN" "http://www.w3.org/Graphics/SVG/1.1/DTD/svg11.dtd">
<svg version="1.1" id="Layer_1" xmlns="http://www.w3.org/2000/svg" xmlns:xlink="http://www.w3.org/1999/xlink" x="0px" y="0px"
	 viewBox="123.75 0.6 289.641 106.346" enable-background="new 123.75 0.6 289.641 106.346"
	 xml:space="preserve">
<path fill="#FFFFFF" d="M138.899,106.946H123.75V1.95h12.299l34.649,50.998L205.346,1.95h12v104.995h-15V32.999l-27.449,40.798
	h-8.55l-27.449-40.798L138.899,106.946L138.899,106.946z"/>
<path fill="#FFFFFF" d="M297.895,80.397h-42.599l-10.198,26.549h-16.351L270.896,0.6h11.1l42.146,106.346h-16.197L297.895,80.397z
	 M260.848,66.147h31.498l-15.75-41.397L260.848,66.147z"/>
<path fill="#FFFFFF" d="M355.496,53.698h17.699c12.75,0,19.051-9.149,19.051-18.3c0-9-6.301-18.148-19.051-18.148h-23.248v89.695
	h-15V1.95h38.248c22.799,0,34.195,16.799,34.195,33.448c0,14.85-9.146,28.949-27.146,32.1l33.146,39.447h-19.646l-38.248-46.048
	V53.698L355.496,53.698z"/>
</svg>
